<?xml version="1.0" encoding="UTF-8"?><svg id="Ebene_1" xmlns="http://www.w3.org/2000/svg" viewBox="0 0 161.83 129.46"><defs><style>.cls-1{fill:#233519;}.cls-1,.cls-2,.cls-3,.cls-4{stroke-width:0px;}.cls-2{fill:#35a047;}.cls-3{fill:#ffcf81;}.cls-4{fill:#282828;}</style></defs><path class="cls-3" d="M161.83,16.75v95.96c0,9.25-7.5,16.75-16.75,16.75h-23.49c7.13-4.54,11.87-12.51,11.87-21.58V21.58c0-9.07-4.74-17.04-11.87-21.58h23.49c9.25,0,16.75,7.5,16.75,16.75Z"/><path class="cls-4" d="M155.84,73.92c-.76.75-1.81,1.13-3.15,1.13h-7.69c-1.66,0-2.91-.34-3.75-1.02-.84-.68-1.26-1.74-1.26-3.19,0-1.26.34-2.28,1.01-3.05.67-.77,1.64-1.16,2.91-1.16h2.87v3.41h-2.47c-.48,0-.81.06-.99.18-.18.12-.27.33-.27.62s.1.52.31.63.51.17.91.17h8.37c.44,0,.76-.07.96-.2.2-.13.3-.33.3-.6,0-.53-.42-.8-1.26-.8h-3.01v-3.45h3.15c2.8,0,4.2,1.44,4.2,4.32,0,1.25-.38,2.25-1.15,3Z"/><path class="cls-4" d="M156.83,65.47h-16.68v-3.43h13.85v-3.53h2.84v6.95Z"/><path class="cls-4" d="M156.83,57.72h-16.68v-3.31h16.68v3.31Z"/><path class="cls-2" d="M129.46,21.58v86.3c0,10.84-7.99,19.82-18.4,21.35-1.04.15-2.09.23-3.17.23H21.58c-11.92,0-21.58-9.66-21.58-21.58V21.58C0,9.66,9.66,0,21.58,0h86.31c1.08,0,2.13.08,3.17.23,10.41,1.53,18.4,10.51,18.4,21.35Z"/><path class="cls-1" d="M42.33,31.57v53.04h10.49v13.27h-27.73V31.57h17.24Z"/><path class="cls-1" d="M104.38,60.45h-17.24v-11.53c0-3.35-.18-5.44-.55-6.28-.37-.83-1.18-1.25-2.44-1.25-1.42,0-2.32.51-2.7,1.52-.38,1.01-.57,3.2-.57,6.55v30.8c0,3.22.19,5.32.57,6.31.38.98,1.24,1.47,2.58,1.48,1.28,0,2.13-.49,2.53-1.48.4-.99.6-3.3.59-6.93v-8.34h17.24v2.58c0,6.86-.48,11.73-1.45,14.6-.97,2.87-3.11,5.39-6.43,7.55-3.32,2.16-7.41,3.24-12.27,3.24s-9.22-.91-12.49-2.74c-3.27-1.83-5.44-4.36-6.51-7.6-1.06-3.24-1.6-8.1-1.6-14.6v-19.38c0-4.78.16-8.36.49-10.75.33-2.39,1.3-4.69,2.93-6.9,1.62-2.21,3.88-3.95,6.76-5.22,2.88-1.27,6.19-1.91,9.93-1.9,5.08,0,9.27.98,12.57,2.95s5.47,4.41,6.51,7.33c1.04,2.93,1.56,7.49,1.56,13.68v6.31Z"/></svg>